PathFileType	4	(X/Y/Z)	./resultDataOpenSim/trcMotMarkerGrf/sub06/qtm-02-04.trc
DataRate	CameraRate	NumFrames	NumMarkers	Units	OrigDataRate	OrigDataStartFrame	OrigNumFrames
250.000000	250.000000	7	24	m	250.000000	62	492
Frame#	Time	L.Toe.Tip			R.Toe.Tip			L.Ankle.Lat			R.Ankle.Lat			L.Ankle.Med			R.Ankle.Med			L.Heel			R.Heel			L.Knee.Lat			R.Knee.Lat			L.Knee.Med			R.Knee.Med			L.Thigh.Upper			R.Thigh.Upper			L.ASIS			R.ASIS			V.Sacral			L.Acromium			R.Acromium			C7			L.Elbow			R.Elbow			L.Wrist.Lat			R.Wrist.Lat
		X1	Y1	Z1	X2	Y2	Z2	X3	Y3	Z3	X4	Y4	Z4	X5	Y5	Z5	X6	Y6	Z6	X7	Y7	Z7	X8	Y8	Z8	X9	Y9	Z9	X10	Y10	Z10	X11	Y11	Z11	X12	Y12	Z12	X13	Y13	Z13	X14	Y14	Z14	X15	Y15	Z15	X16	Y16	Z16	X17	Y17	Z17	X18	Y18	Z18	X19	Y19	Z19	X20	Y20	Z20	X21	Y21	Z21	X22	Y22	Z22	X23	Y23	Z23	X24	Y24	Z24

62	0.244	-1.4365837	0.062362614	-0.067247591	-0.74319085	0.036585082	0.12435605	-1.4218732	0.19215964	-0.096131152	-0.87946303	0.061667378	0.14177106	-1.4077814	0.19311664	-0.013725793	-0.85892708	0.078110173	0.054526979	-1.4645581	0.25196047	-0.050016951	-0.93306866	0.037303116	0.079617544	-1.0795329	0.36548643	-0.10418209	-0.83003199	0.44540287	0.1617498	-1.0830456	0.35206208	0.013152188	-0.86437839	0.42834538	0.038495076	-1.0290513	0.75282723	-0.12517572	-1.0010252	0.78332906	0.22008614	-0.94809376	0.80027524	-0.083249414	-0.92119034	0.8293986	0.15484563	-1.1203714	0.89455999	0.051588578	-0.97664634	1.3012274	-0.13296062	-0.99091972	1.2777686	0.22912185	-1.0588418	1.3321845	0.045727686	-0.9909432	0.97702995	-0.19823211	-1.1169888	0.98476019	0.26861515	-0.78600442	0.83848798	-0.17081616	-1.0316395	0.7658392	0.32530875
63	0.248	-1.4248714	0.065471234	-0.066926764	-0.74321386	0.036547292	0.12439435	-1.4106366	0.19524619	-0.095685024	-0.87937815	0.061617493	0.14174002	-1.3939153	0.19665171	-0.013888959	-0.85872295	0.078104097	0.054530401	-1.4534813	0.25482154	-0.049132986	-0.93311381	0.037293425	0.07960775	-1.0669624	0.36559381	-0.10451614	-0.82645781	0.44482924	0.16233245	-1.0702381	0.35227488	0.013114576	-0.86187049	0.42787996	0.039259652	-1.0221784	0.75434561	-0.12467505	-0.99261627	0.78473334	0.22119289	-0.9414083	0.80195507	-0.082443762	-0.91488549	0.83035357	0.15565866	-1.1142046	0.89594314	0.053560775	-0.9704375	1.3025217	-0.1327341	-0.98425689	1.2792288	0.22935083	-1.0523906	1.3336635	0.046121431	-0.98581306	0.97842508	-0.19705449	-1.1093146	0.98573235	0.26961139	-0.78264025	0.83744917	-0.17111221	-1.0222112	0.76733937	0.32610899
64	0.252	-1.4122492	0.068349992	-0.066469268	-0.74325568	0.03651484	0.12444153	-1.3990409	0.19820207	-0.095259304	-0.87936626	0.061614339	0.14170979	-1.3805053	0.19997364	-0.01376777	-0.85854875	0.078119608	0.054547043	-1.4421766	0.25740021	-0.048350818	-0.93316283	0.03728513	0.079596452	-1.0543408	0.36587597	-0.10482335	-0.82308589	0.44432201	0.16294081	-1.0574969	0.352726	0.013110745	-0.85958714	0.42750036	0.040058836	-1.0154445	0.75588381	-0.1241762	-0.98478207	0.78607857	0.22217969	-0.93479182	0.80372575	-0.081658254	-0.90863939	0.83134169	0.15644232	-1.1079156	0.8974131	0.055445638	-0.96427752	1.3038587	-0.13252894	-0.9776298	1.2807582	0.22956984	-1.0459463	1.3352012	0.046515099	-0.98072798	0.97984402	-0.19592557	-1.101596	0.98677222	0.27064183	-0.77933593	0.83647402	-0.17141255	-1.012866	0.76890602	0.32688877
65	0.256	-1.3988809	0.070924712	-0.065883941	-0.743323	0.036494124	0.12449965	-1.3869604	0.20086567	-0.094802216	-0.87943504	0.061623508	0.14168936	-1.3676741	0.20290383	-0.013317763	-0.85840983	0.07815657	0.05458539	-1.4305058	0.25967376	-0.047651921	-0.93321935	0.037275897	0.079586301	-1.0417051	0.36634253	-0.10509736	-0.8199768	0.44385023	0.16358725	-1.0448395	0.35337801	0.013134676	-0.85739924	0.42724078	0.040890029	-1.0087213	0.75741794	-0.12359595	-0.97800336	0.78734422	0.22290717	-0.92822562	0.80556753	-0.080885383	-0.90246703	0.83236486	0.15720645	-1.1013117	0.89898684	0.056815764	-0.95817473	1.3052387	-0.13233701	-0.97104709	1.2823586	0.22978062	-1.0395135	1.3367796	0.046896784	-0.97575594	0.98128195	-0.19502478	-1.0937985	0.98789031	0.27176016	-0.77613643	0.83555735	-0.17174108	-1.0036692	0.77051488	0.32766055
66	0.26	-1.3849657	0.073178233	-0.065218934	-0.74341638	0.036488719	0.12457188	-1.3744881	0.20317063	-0.094219354	-0.87955711	0.061627823	0.1416909	-1.3549547	0.20542563	-0.012686781	-0.85830373	0.078212953	0.054652883	-1.4184216	0.26161888	-0.046962293	-0.93328605	0.037265685	0.079580216	-1.029073	0.36699323	-0.10533791	-0.81729605	0.44335444	0.16429276	-1.0321722	0.35421645	0.013172385	-0.85520455	0.42711873	0.041718341	-1.0018956	0.75894002	-0.1229014	-0.97251394	0.78852102	0.2232883	-0.92174428	0.80744123	-0.080168167	-0.89637632	0.8334214	0.15796542	-1.0945391	0.90066572	0.057474132	-0.95213499	1.3066624	-0.13215744	-0.9645156	1.2840296	0.22998816	-1.0330979	1.3383798	0.047246785	-0.97096968	0.98272281	-0.19452849	-1.0859202	0.98909555	0.27296868	-0.77298526	0.83470544	-0.17207971	-0.99456494	0.77217046	0.32843482
67	0.264	-1.3706516	0.075097688	-0.064520868	-0.74353144	0.03649725	0.12466299	-1.3617048	0.20513818	-0.093501716	-0.87969731	0.061625927	0.14172295	-1.3420088	0.20757951	-0.011989521	-0.85822366	0.078283526	0.054751246	-1.4059706	0.26322731	-0.046215101	-0.93336213	0.037257872	0.079579316	-1.0164225	0.36782484	-0.10555023	-0.81517126	0.44280818	0.16507328	-1.0194515	0.35524435	0.013219153	-0.85296493	0.4271314	0.042491235	-0.99502045	0.76046598	-0.12217392	-0.96795109	0.78961702	0.22342326	-0.91540669	0.80929967	-0.079566738	-0.89036527	0.83450422	0.15872834	-1.0879357	0.90244164	0.057220863	-0.94615733	1.308129	-0.13199645	-0.95803804	1.285769	0.23019677	-1.0267085	1.3399949	0.047548932	-0.96635945	0.98416069	-0.1943966	-1.0780245	0.99038225	0.27418398	-0.76977917	0.83392958	-0.17238727	-0.98538837	0.77391867	0.32919879
68	0.268	-1.356013	0.076672305	-0.063819302	-0.74366306	0.036515226	0.1247772	-1.3485874	0.20678967	-0.092728093	-0.87984283	0.061619898	0.14178572	-1.3288541	0.2094089	-0.01124878	-0.85816762	0.078361475	0.054874543	-1.3932851	0.2645133	-0.045405197	-0.933444	0.037255436	0.079581603	-1.0037216	0.36883198	-0.1057485	-0.81343357	0.44226308	0.16587834	-1.0066957	0.35646573	0.013275141	-0.85073637	0.42727254	0.043204687	-0.98830843	0.76202628	-0.12158376	-0.96349924	0.79068637	0.22356881	-0.90923237	0.8111203	-0.079096772	-0.88443077	0.8356035	0.1594974	-1.0817702	0.90430563	0.05587912	-0.94023344	1.3096368	-0.13185486	-0.95161265	1.2875709	0.2304051	-1.0203546	1.3416332	0.04779892	-0.96179523	0.98562694	-0.19430219	-1.0701917	0.99172517	0.2753019	-0.76647758	0.83323775	-0.17264493	-0.97600339	0.77581073	0.32992426
